<?xml version="1.0" encoding="UTF-8" standalone="no"?>
<!-- Created with Inkscape (http://www.inkscape.org/) -->

<svg
   version="1.1"
   id="svg2"
   width="188.976"
   height="172.88667"
   viewBox="0 0 188.976 172.88667"
   sodipodi:docname="om.svg"
   inkscape:version="1.2.2 (b0a8486541, 2022-12-01)"
   xmlns:inkscape="http://www.inkscape.org/namespaces/inkscape"
   xmlns:sodipodi="http://sodipodi.sourceforge.net/DTD/sodipodi-0.dtd"
   xmlns="http://www.w3.org/2000/svg"
   xmlns:svg="http://www.w3.org/2000/svg">
  <defs
     id="defs6">
    <clipPath
       clipPathUnits="userSpaceOnUse"
       id="clipPath20">
      <path
         d="M 0,0 H 141.732 V 129.665 H 0 Z"
         id="path18" />
    </clipPath>
    <clipPath
       clipPathUnits="userSpaceOnUse"
       id="clipPath32">
      <path
         d="M 0,0 H 141.732 V 129.665 H 0 Z"
         id="path30" />
    </clipPath>
    <clipPath
       clipPathUnits="userSpaceOnUse"
       id="clipPath40">
      <path
         d="m 23.5688,23.3877 v 0 0 z"
         id="path38" />
    </clipPath>
  </defs>
  <sodipodi:namedview
     id="namedview4"
     pagecolor="#ffffff"
     bordercolor="#000000"
     borderopacity="0.25"
     inkscape:showpageshadow="2"
     inkscape:pageopacity="0.0"
     inkscape:pagecheckerboard="0"
     inkscape:deskcolor="#d1d1d1"
     showgrid="false"
     inkscape:zoom="5.795704"
     inkscape:cx="56.593642"
     inkscape:cy="86.529609"
     inkscape:window-width="2560"
     inkscape:window-height="1376"
     inkscape:window-x="1920"
     inkscape:window-y="27"
     inkscape:window-maximized="1"
     inkscape:current-layer="g10">
    <inkscape:page
       x="0"
       y="0"
       id="page8"
       width="188.976"
       height="172.88667" />
  </sodipodi:namedview>
  <g
     id="g10"
     inkscape:groupmode="layer"
     inkscape:label="Page 1"
     transform="matrix(1.3333333,0,0,-1.3333333,0,172.88667)">
    <path
       d="M 0,0 H 141.732 V 129.665 H 0 Z"
       style="fill:#d22630;fill-opacity:1;fill-rule:nonzero;stroke:none"
       id="path12" />
    <g
       id="g14">
      <g
         id="g16"
         clip-path="url(#clipPath20)">
        <g
           id="g22"
           transform="translate(117.9863,59.6474)">
          <path
             d="m 0,0 c -0.074,3.345 -0.172,6.736 -0.267,9.301 -0.118,3.124 -0.187,4.027 -0.257,4.328 -0.113,1.828 -9.409,8.42 -10.148,8.42 -1.567,0 -4.033,-2.805 -5.283,-4.798 -0.088,-0.141 -0.224,-0.367 -0.396,-0.655 -2.121,-3.568 -3.62,-5.622 -4.463,-6.125 0.163,0.745 0.594,2.314 1.082,4.071 1.943,7.043 5.2,18.83 3.984,21.98 -0.451,1.174 -6.936,7.69 -11.822,7.352 l -0.155,-0.01 -0.854,-1.473 v -0.005 c -0.039,-0.069 -0.113,-0.199 -0.222,-0.387 -5.167,-8.994 -22.853,-40.945 -33.493,-74.518 l -0.041,-0.127 0.073,-0.115 c 1.05,-1.64 9.954,-3.275 11.607,-3.275 0.155,0 0.556,0 0.586,0.317 0.634,3.121 5.593,14.662 9.58,23.94 2.445,5.69 4.038,9.414 4.722,11.247 0.002,-1.039 -0.081,-2.619 -0.145,-3.892 -0.213,-4.152 -0.228,-5.592 0.107,-5.946 0.028,-0.028 0.058,-0.052 0.089,-0.07 0.428,-0.559 2.173,-1.531 5.203,-2.899 2.542,-1.145 5.671,-2.372 6.827,-2.372 h 0.001 c 0.367,0 0.539,0.127 0.62,0.26 0.535,0.445 1.873,2.521 6.967,10.877 1.92,3.148 4.049,6.638 4.964,7.986 0.043,-1.345 0.156,-4.105 0.323,-6.824 0.356,-5.76 0.653,-6.911 0.948,-7.14 0.202,-0.318 1.007,-0.947 4.215,-2.339 1.974,-0.855 4.423,-1.776 5.132,-1.776 0.236,0 0.346,0.097 0.399,0.191 0.02,0.027 0.04,0.059 0.056,0.098 C 0.257,-13.613 0.087,-4.068 0,0 m -42.744,39.732 c -1.076,2.966 -7.002,6.34 -9.963,6.694 l -0.035,0.002 c -5.1,-0.012 -9.3,-5.426 -14.426,-14.165 -2.307,-4.14 -7.761,-15.058 -8.53,-17.504 -0.564,0.171 -1.415,0.178 -1.427,0.178 -0.583,0 -1.074,-0.088 -1.447,-0.258 -4.217,-1.726 -8.569,-8.337 -11.938,-18.139 -2.809,-8.171 -4.366,-17.044 -3.701,-21.1 0.825,-5.031 7.667,-10.876 15.25,-10.876 4.069,0 9.787,1.714 13.909,9.878 l 0.005,0.008 c 0.017,0.027 0.053,0.089 0.112,0.181 3.15,4.983 13.947,23.441 20.655,51.821 0.738,3.121 2.228,11.376 1.536,13.28 M -64.291,3.159 c -1.49,-3.716 -7.859,-16.957 -13.371,-24.756 -2.317,-3.324 -3.383,-3.82 -3.813,-3.82 -0.155,0 -0.279,0.067 -0.389,0.213 -1.194,1.568 0.426,9.57 0.793,10.887 0.775,4.289 5.258,21.647 11.505,21.81 0.485,0 0.745,-0.072 1.005,-0.188 l 0.261,-0.116 0.119,0.259 c 1.482,3.18 3.233,6.894 8.327,17.29 2.478,5.055 6.221,10.885 6.711,11.534 l 0.176,0.194 C -53.396,33.161 -60.673,12.211 -64.291,3.159"
             style="fill:#ffffff;fill-opacity:1;fill-rule:nonzero;stroke:none"
             id="path24" />
        </g>
      </g>
    </g>
    <g
       id="g26">
      <g
         id="g28"
         clip-path="url(#clipPath32)">
        <g
           id="g34">
          <g
             id="g36" />
          <g
             id="g44">
            <g
               clip-path="url(#clipPath40)"
               id="g42" />
          </g>
        </g>
      </g>
    </g>
  </g>
</svg>
