<?xml version="1.0" encoding="UTF-8" standalone="no"?>
<svg
   viewBox="0 0 360 360"
   version="1.1"
   id="svg28"
   xmlns="http://www.w3.org/2000/svg"
   xmlns:svg="http://www.w3.org/2000/svg">
  <defs
     id="defs7">
    <style
       id="style2">
      .cls-1 {
        clip-path: url(#clippath);
      }

      .cls-2, .cls-3 {
        fill: #1d1d1b;
        mix-blend-mode: multiply;
        opacity: .15;
      }

      .cls-3, .cls-4 {
        stroke-width: 0px;
      }

      .cls-5 {
        isolation: isolate;
      }

      .cls-4 {
        fill: black;
      }
    </style>
    <clipPath
       id="clippath">
      <rect
         class="cls-3"
         y="-379.18"
         width="360"
         height="360"
         id="rect4" />
    </clipPath>
  </defs>
  <g
     class="cls-5"
     id="g26"
     transform="matrix(1.6141415,0,0,1.6141415,-110.54546,-110.54546)">
    <g
       id="Artwork_MW"
       data-name="Artwork MW">
      <g
         id="g23">
        <polygon
           class="cls-4"
           points="159.7,122.48 159.7,122.48 136.03,155.05 152.31,177.45 187.1,129.56 "
           id="polygon9" />
        <polygon
           class="cls-4"
           points="264.25,129.97 256.29,194.83 278.99,226.07 291.66,122.88 "
           id="polygon11" />
        <polygon
           class="cls-4"
           points="209.25,180 198.18,195.24 202.89,233.56 241.81,180 "
           id="polygon13" />
        <polygon
           class="cls-4"
           points="68.34,237.52 95.75,230.44 108.95,122.88 81.55,129.97 "
           id="polygon15" />
        <polygon
           class="cls-4"
           points="251.05,237.52 278.45,230.44 243.66,182.55 227.38,204.95 "
           id="polygon17" />
        <polygon
           class="cls-4"
           points="117.9,180 150.45,180 111.54,126.44 106.83,164.76 "
           id="polygon19" />
        <polygon
           class="cls-4"
           points="172.9,230.03 200.3,237.12 187.63,133.93 164.94,165.17 "
           id="polygon21" />
      </g>
    </g>
  </g>
</svg>
