<svg width="100" height="100" xmlns="http://www.w3.org/2000/svg">
    <path d="M81.44 75.356c10.776 0 19.53 8.767 19.53 19.53v69.301h-69.3c-10.777 0-19.531-8.767-19.531-19.53v-49.77c0-10.777 8.767-19.53 19.53-19.53h49.77m0-12.14H31.67C14.257 63.217 0 77.474 0 94.887v49.77c0 17.412 14.257 31.67 31.67 31.67h81.439v-81.44c0-17.413-14.257-31.67-31.67-31.67z" style="stroke-width:1.34878;fill:#cc666c" transform="scale(.32379 .32365)"/>
    <path d="M100.97 208.009v69.3c0 10.777-8.767 19.53-19.53 19.53H31.67c-10.777 0-19.531-8.766-19.531-19.53v-49.77c0-10.776 8.767-19.53 19.53-19.53h69.3m12.14-12.14h-81.44C14.257 195.87 0 210.128 0 227.54v49.77c0 17.413 14.257 31.67 31.67 31.67h49.77c17.426 0 31.669-14.257 31.669-31.67z" style="stroke-width:1.34878;fill:#6e5da6" transform="scale(.32379 .32365)"/>
    <path d="M213.566 208.009c10.777 0 19.53 8.767 19.53 19.53v49.77c0 10.777-8.767 19.53-19.53 19.53h-49.77c-10.777 0-19.53-8.766-19.53-19.53v-69.3h69.3m0-12.14h-81.44v81.44c0 17.413 14.257 31.67 31.67 31.67h49.77c17.426 0 31.67-14.257 31.67-31.67v-49.77c0-17.412-14.257-31.67-31.67-31.67z" style="stroke-width:1.34878;fill:#f2a77a" transform="scale(.32379 .32365)"/>
    <path d="M259.222 0H181.25c-27.3 0-49.622 22.336-49.622 49.622v127.594h127.595c27.3 0 49.622-22.336 49.622-49.621V49.622C308.844 22.336 286.508 0 259.222 0Zm-3.035 74.992a3.765 3.765 0 0 1-3.763 3.763h-18.99a3.765 3.765 0 0 0-3.764 3.763v59.873a3.765 3.765 0 0 1-3.763 3.763h-11.559a3.765 3.765 0 0 1-3.763-3.763V82.518a3.765 3.765 0 0 0-3.763-3.763h-18.99a3.765 3.765 0 0 1-3.764-3.763V63.433a3.765 3.765 0 0 1 3.763-3.763h18.991a3.765 3.765 0 0 0 3.763-3.763V38.521a3.765 3.765 0 0 1 3.763-3.763h11.56a3.765 3.765 0 0 1 3.762 3.763v17.386a3.765 3.765 0 0 0 3.763 3.763h18.991a3.765 3.765 0 0 1 3.763 3.763z" style="stroke-width:1.34878;fill:#1c75bc" transform="scale(.32379 .32365)"/>
</svg>
